<svg width="25" height="25" viewBox="0 0 25 25" fill="none" xmlns="http://www.w3.org/2000/svg">
<path fill-rule="evenodd" clip-rule="evenodd" d="M25 12.5C25 19.4036 19.4036 25 12.5 25C5.59644 25 0 19.4036 0 12.5C0 5.59644 5.59644 0 12.5 0C19.4036 0 25 5.59644 25 12.5ZM13.75 5C13.75 4.30964 13.1904 3.75 12.5 3.75C11.8096 3.75 11.25 4.30964 11.25 5V12.5C11.25 12.9735 11.5175 13.4063 11.941 13.618L16.941 16.118C17.5585 16.4268 18.3093 16.1765 18.618 15.559C18.9268 14.9415 18.6765 14.1907 18.059 13.882L13.75 11.7275V5Z" fill="#6BC87C"/>
</svg>
