<svg width="284" height="43" viewBox="0 0 284 43" fill="none" xmlns="http://www.w3.org/2000/svg">
<path d="M34.2088 0.000755702C37.7066 0.000755702 40.574 2.74007 40.8432 6.22126L52.2329 6.22183C52.8052 6.22183 53.3464 6.47265 53.7209 6.90288L53.8533 7.07272L62.6349 19.6627C62.8332 19.9462 62.9546 20.2763 62.9895 20.6199L63 20.8274V34.2582C63 35.306 62.2128 36.167 61.2057 36.2643L61.0146 36.2739L56.38 36.2744C56.0221 40.0519 52.8661 43 49.0331 43C44.9608 43 41.6524 39.6724 41.6524 35.558C41.6524 31.4437 44.9608 28.1161 49.0331 28.1161C51.9255 28.1161 54.4327 29.7948 55.6425 32.2429H59.029L59.0284 22.9355L47.5578 22.8489C46.1058 22.8382 44.9219 21.6915 44.8217 20.2427L44.815 20.0431L44.8139 10.2526H40.863L40.8635 34.2653C40.8635 35.313 40.0763 36.1741 39.0693 36.272L38.8781 36.281H27.7016C26.6047 36.281 25.7161 35.3789 25.7161 34.2654C25.7161 33.2177 26.5033 32.3566 27.5098 32.2593L27.7015 32.2497H36.8926V6.75698C36.8926 5.32009 35.798 4.14364 34.4085 4.03955L34.2085 4.03168H13.5541L4.43069 32.2498L6.74856 32.2503C7.95678 29.7984 10.4663 28.1157 13.3625 28.1157C17.4343 28.1157 20.7432 31.4433 20.7432 35.5576C20.7432 39.672 17.4343 42.9996 13.3625 42.9996C9.53231 42.9996 6.37799 40.0555 6.01621 36.2819L2.76375 36.2808C1.2375 36.2808 0 35.025 0 33.4751C0 33.2524 0.0265911 33.0308 0.0781108 32.8143L0.13794 32.6006L10.0536 1.93071C10.4031 0.850935 11.356 0.0989793 12.4573 0.00899812L12.68 0L34.2088 0.000755702ZM13.3615 32.1478C11.4741 32.1478 9.95179 33.6786 9.95179 35.5586C9.95179 37.4381 11.4741 38.9694 13.3615 38.9694C15.2484 38.9694 16.7713 37.438 16.7713 35.5586C16.7713 33.6785 15.2484 32.1478 13.3615 32.1478ZM49.0331 32.1478C47.1456 32.1478 45.6233 33.6786 45.6233 35.5586C45.6233 37.4381 47.1456 38.9694 49.0331 38.9694C50.92 38.9694 52.4428 37.438 52.4428 35.5586C52.4428 33.6785 50.92 32.1478 49.0331 32.1478ZM51.2057 10.2543L48.7849 10.2537L48.786 18.8284L57.2297 18.8925L51.2057 10.2543Z" fill="#6BC87C"/>
<path d="M84.266 29V12.2727H91.2411C92.4935 12.2727 93.5417 12.4497 94.3857 12.8036C95.2351 13.1576 95.8722 13.6531 96.2969 14.2901C96.727 14.9272 96.9421 15.665 96.9421 16.5036C96.9421 17.1406 96.8087 17.7096 96.5419 18.2106C96.2751 18.7061 95.9076 19.1172 95.4393 19.4439C94.971 19.7706 94.4292 19.9993 93.8139 20.13V20.2933C94.4891 20.326 95.1126 20.5084 95.6843 20.8406C96.2615 21.1727 96.7243 21.6355 97.0728 22.229C97.4213 22.8171 97.5955 23.5141 97.5955 24.32C97.5955 25.2184 97.3668 26.0215 96.9094 26.7294C96.4521 27.4318 95.7905 27.9872 94.9247 28.3956C94.0589 28.7985 93.008 29 91.772 29H84.266ZM88.309 25.7411H90.8082C91.6849 25.7411 92.3301 25.575 92.744 25.2429C93.1632 24.9107 93.3729 24.4479 93.3729 23.8544C93.3729 23.4242 93.2721 23.054 93.0707 22.7436C92.8692 22.4278 92.5833 22.1855 92.2131 22.0167C91.8428 21.8424 91.399 21.7553 90.8817 21.7553H88.309V25.7411ZM88.309 19.1499H90.5469C90.9879 19.1499 91.38 19.0763 91.723 18.9293C92.0661 18.7823 92.3329 18.57 92.5234 18.2923C92.7195 18.0146 92.8175 17.6797 92.8175 17.2876C92.8175 16.7268 92.6187 16.2857 92.2212 15.9645C91.8237 15.6432 91.2874 15.4826 90.6122 15.4826H88.309V19.1499Z" fill="#6BC87C"/>
<path d="M102.95 18.1697H106.674C108.041 18.1697 109.228 18.3903 110.235 18.8313C111.243 19.2724 112.021 19.8931 112.571 20.6935C113.127 21.494 113.404 22.436 113.404 23.5195C113.404 24.6031 113.127 25.556 112.571 26.3782C112.021 27.2004 111.243 27.8429 110.235 28.3058C109.228 28.7686 108.041 29 106.674 29H100.426V12.2727H104.461V25.7983H106.674C107.262 25.7983 107.758 25.6976 108.161 25.4961C108.569 25.2892 108.877 25.0115 109.084 24.663C109.296 24.3091 109.4 23.917 109.394 23.4869C109.4 22.8661 109.168 22.3488 108.7 21.935C108.232 21.5157 107.556 21.3061 106.674 21.3061H102.95V18.1697ZM118.705 12.2727V29H114.67V12.2727H118.705Z" fill="#6BC87C"/>
<path d="M122.038 29V12.2727H129.013C130.266 12.2727 131.314 12.4497 132.158 12.8036C133.007 13.1576 133.644 13.6531 134.069 14.2901C134.499 14.9272 134.714 15.665 134.714 16.5036C134.714 17.1406 134.581 17.7096 134.314 18.2106C134.047 18.7061 133.68 19.1172 133.211 19.4439C132.743 19.7706 132.201 19.9993 131.586 20.13V20.2933C132.261 20.326 132.885 20.5084 133.456 20.8406C134.034 21.1727 134.496 21.6355 134.845 22.229C135.193 22.8171 135.368 23.5141 135.368 24.32C135.368 25.2184 135.139 26.0215 134.682 26.7294C134.224 27.4318 133.563 27.9872 132.697 28.3956C131.831 28.7985 130.78 29 129.544 29H122.038ZM126.081 25.7411H128.58C129.457 25.7411 130.102 25.575 130.516 25.2429C130.935 24.9107 131.145 24.4479 131.145 23.8544C131.145 23.4242 131.044 23.054 130.843 22.7436C130.641 22.4278 130.355 22.1855 129.985 22.0167C129.615 21.8424 129.171 21.7553 128.654 21.7553H126.081V25.7411ZM126.081 19.1499H128.319C128.76 19.1499 129.152 19.0763 129.495 18.9293C129.838 18.7823 130.105 18.57 130.296 18.2923C130.492 18.0146 130.59 17.6797 130.59 17.2876C130.59 16.7268 130.391 16.2857 129.993 15.9645C129.596 15.6432 129.06 15.4826 128.384 15.4826H126.081V19.1499Z" fill="#6BC87C"/>
<path d="M153.905 20.6364C153.905 22.4768 153.551 24.0368 152.843 25.3164C152.135 26.596 151.177 27.5679 149.968 28.2322C148.764 28.8965 147.414 29.2287 145.917 29.2287C144.414 29.2287 143.061 28.8938 141.857 28.2241C140.654 27.5543 139.698 26.5824 138.99 25.3082C138.288 24.0286 137.937 22.4714 137.937 20.6364C137.937 18.7959 138.288 17.2359 138.99 15.9563C139.698 14.6767 140.654 13.7048 141.857 13.0405C143.061 12.3762 144.414 12.044 145.917 12.044C147.414 12.044 148.764 12.3762 149.968 13.0405C151.177 13.7048 152.135 14.6767 152.843 15.9563C153.551 17.2359 153.905 18.7959 153.905 20.6364ZM149.772 20.6364C149.772 19.5473 149.617 18.6271 149.306 17.8757C149.001 17.1243 148.56 16.5553 147.983 16.1687C147.411 15.7821 146.722 15.5888 145.917 15.5888C145.116 15.5888 144.427 15.7821 143.85 16.1687C143.273 16.5553 142.829 17.1243 142.519 17.8757C142.214 18.6271 142.061 19.5473 142.061 20.6364C142.061 21.7254 142.214 22.6456 142.519 23.397C142.829 24.1484 143.273 24.7174 143.85 25.104C144.427 25.4906 145.116 25.6839 145.917 25.6839C146.722 25.6839 147.411 25.4906 147.983 25.104C148.56 24.7174 149.001 24.1484 149.306 23.397C149.617 22.6456 149.772 21.7254 149.772 20.6364Z" fill="#6BC87C"/>
<path d="M163.4 29.2287C162.126 29.2287 160.996 29.0109 160.01 28.5753C159.03 28.1342 158.257 27.5271 157.691 26.7539C157.124 25.9807 156.836 25.0904 156.825 24.0831H160.892C160.909 24.4479 161.026 24.7719 161.244 25.055C161.461 25.3327 161.758 25.5505 162.134 25.7085C162.51 25.8664 162.937 25.9453 163.416 25.9453C163.895 25.9453 164.317 25.8609 164.682 25.6921C165.052 25.5179 165.341 25.281 165.548 24.9815C165.755 24.6766 165.856 24.3281 165.85 23.9361C165.856 23.544 165.744 23.1955 165.515 22.8906C165.287 22.5857 164.963 22.3488 164.543 22.18C164.13 22.0112 163.639 21.9268 163.073 21.9268H161.448V19.0518H163.073C163.569 19.0518 164.004 18.9702 164.38 18.8068C164.761 18.6435 165.058 18.4148 165.27 18.1207C165.483 17.8213 165.586 17.4782 165.581 17.0916C165.586 16.7159 165.496 16.3865 165.311 16.1033C165.131 15.8147 164.878 15.5915 164.551 15.4336C164.23 15.2757 163.857 15.1967 163.433 15.1967C162.986 15.1967 162.58 15.2757 162.216 15.4336C161.856 15.5915 161.57 15.8147 161.358 16.1033C161.146 16.3919 161.034 16.7268 161.023 17.108H157.16C157.171 16.1115 157.448 15.2348 157.993 14.478C158.537 13.7157 159.278 13.1194 160.214 12.6893C161.156 12.2591 162.229 12.044 163.433 12.044C164.63 12.044 165.684 12.2537 166.593 12.6729C167.503 13.0922 168.211 13.6639 168.717 14.3881C169.223 15.1069 169.477 15.9209 169.477 16.8303C169.482 17.7723 169.174 18.5482 168.554 19.158C167.938 19.7679 167.146 20.1436 166.177 20.2852V20.4158C167.473 20.5683 168.45 20.9876 169.109 21.6737C169.773 22.3597 170.103 23.2173 170.097 24.2464C170.097 25.2157 169.811 26.076 169.24 26.8274C168.673 27.5734 167.884 28.1615 166.871 28.5916C165.864 29.0163 164.707 29.2287 163.4 29.2287Z" fill="#6BC87C"/>
<path d="M178.962 12.2727H183.969L188.216 22.6293H188.412L192.659 12.2727H197.666V29H193.729V18.7251H193.59L189.572 28.8938H187.056L183.038 18.668H182.899V29H178.962V12.2727Z" fill="#6BC87C"/>
<path d="M203.108 29.2287V26.027H203.966C204.429 26.027 204.799 25.9807 205.077 25.8881C205.36 25.7901 205.58 25.6349 205.738 25.4226C205.902 25.2102 206.038 24.9271 206.147 24.5732L206.334 24.0586L200.16 12.2727H204.309L208.025 19.7869L211.014 12.2727H215.098L209.348 25.5288C209.049 26.1822 208.695 26.792 208.286 27.3583C207.878 27.9192 207.364 28.3711 206.743 28.7141C206.127 29.0572 205.352 29.2287 204.415 29.2287H203.108Z" fill="#6BC87C"/>
<path d="M231.693 18.3331H227.609C227.555 17.9138 227.443 17.5354 227.275 17.1978C227.106 16.8602 226.883 16.5716 226.605 16.332C226.327 16.0924 225.998 15.91 225.617 15.7848C225.241 15.6541 224.824 15.5888 224.367 15.5888C223.556 15.5888 222.856 15.7875 222.268 16.185C221.685 16.5825 221.236 17.157 220.92 17.9084C220.61 18.6598 220.455 19.5691 220.455 20.6364C220.455 21.7472 220.613 22.6783 220.928 23.4297C221.25 24.1757 221.699 24.7392 222.276 25.1204C222.859 25.4961 223.547 25.6839 224.342 25.6839C224.789 25.6839 225.195 25.6268 225.559 25.5124C225.93 25.3981 226.254 25.232 226.531 25.0142C226.814 24.791 227.046 24.5214 227.226 24.2056C227.411 23.8844 227.539 23.5223 227.609 23.1193L231.693 23.1438C231.622 23.8843 231.407 24.614 231.048 25.3327C230.694 26.0515 230.207 26.7076 229.586 27.3011C228.965 27.8892 228.208 28.3575 227.315 28.706C226.428 29.0544 225.41 29.2287 224.261 29.2287C222.747 29.2287 221.391 28.8965 220.193 28.2322C219.001 27.5625 218.059 26.5878 217.367 25.3082C216.676 24.0286 216.33 22.4714 216.33 20.6364C216.33 18.7959 216.681 17.2359 217.384 15.9563C218.086 14.6767 219.036 13.7048 220.234 13.0405C221.432 12.3762 222.774 12.044 224.261 12.044C225.274 12.044 226.21 12.1856 227.07 12.4688C227.931 12.7464 228.688 13.1548 229.341 13.6939C229.994 14.2275 230.525 14.8836 230.934 15.6623C231.342 16.4409 231.595 17.3312 231.693 18.3331Z" fill="#6BC87C"/>
<path d="M250.6 20.6364C250.6 22.4768 250.246 24.0368 249.538 25.3164C248.83 26.596 247.872 27.5679 246.663 28.2322C245.46 28.8965 244.109 29.2287 242.612 29.2287C241.109 29.2287 239.756 28.8938 238.553 28.2241C237.349 27.5543 236.394 26.5824 235.686 25.3082C234.983 24.0286 234.632 22.4714 234.632 20.6364C234.632 18.7959 234.983 17.2359 235.686 15.9563C236.394 14.6767 237.349 13.7048 238.553 13.0405C239.756 12.3762 241.109 12.044 242.612 12.044C244.109 12.044 245.46 12.3762 246.663 13.0405C247.872 13.7048 248.83 14.6767 249.538 15.9563C250.246 17.2359 250.6 18.7959 250.6 20.6364ZM246.467 20.6364C246.467 19.5473 246.312 18.6271 246.001 17.8757C245.696 17.1243 245.255 16.5553 244.678 16.1687C244.107 15.7821 243.418 15.5888 242.612 15.5888C241.811 15.5888 241.123 15.7821 240.545 16.1687C239.968 16.5553 239.524 17.1243 239.214 17.8757C238.909 18.6271 238.757 19.5473 238.757 20.6364C238.757 21.7254 238.909 22.6456 239.214 23.397C239.524 24.1484 239.968 24.7174 240.545 25.104C241.123 25.4906 241.811 25.6839 242.612 25.6839C243.418 25.6839 244.107 25.4906 244.678 25.104C245.255 24.7174 245.696 24.1484 246.001 23.397C246.312 22.6456 246.467 21.7254 246.467 20.6364Z" fill="#6BC87C"/>
<path d="M253.765 29V12.2727H260.675C261.927 12.2727 263.008 12.5178 263.918 13.0078C264.832 13.4924 265.537 14.1703 266.033 15.0415C266.528 15.9073 266.776 16.9147 266.776 18.0636C266.776 19.2179 266.523 20.228 266.017 21.0938C265.516 21.9541 264.8 22.6211 263.869 23.0948C262.937 23.5685 261.832 23.8054 260.552 23.8054H256.289V20.62H259.801C260.411 20.62 260.92 20.5138 261.328 20.3015C261.742 20.0891 262.055 19.7924 262.268 19.4112C262.48 19.0246 262.586 18.5754 262.586 18.0636C262.586 17.5463 262.48 17.0998 262.268 16.7241C262.055 16.3429 261.742 16.0489 261.328 15.842C260.915 15.6351 260.405 15.5316 259.801 15.5316H257.808V29H253.765Z" fill="#6BC87C"/>
<path d="M271.171 29H266.826L272.47 12.2727H277.852L283.496 29H279.151L275.222 16.4872H275.091L271.171 29ZM270.591 22.4169H279.673V25.4879H270.591V22.4169Z" fill="#6BC87C"/>
</svg>
